<?xml version="1.0" encoding="UTF-8" standalone="no"?>
<!-- Created with Inkscape (http://www.inkscape.org/) -->

<svg
   xmlns:dc="http://purl.org/dc/elements/1.1/"
   xmlns:cc="http://creativecommons.org/ns#"
   xmlns:rdf="http://www.w3.org/1999/02/22-rdf-syntax-ns#"
   xmlns:svg="http://www.w3.org/2000/svg"
   xmlns="http://www.w3.org/2000/svg"
   xmlns:sodipodi="http://sodipodi.sourceforge.net/DTD/sodipodi-0.dtd"
   xmlns:inkscape="http://www.inkscape.org/namespaces/inkscape"
   version="1.1"
   id="svg1957"
   xml:space="preserve"
   width="513.33331"
   height="325.33334"
   viewBox="0 0 513.33331 325.33334"
   sodipodi:docname="logo2.svg"
   inkscape:version="0.92.5 (2060ec1f9f, 2020-04-08)"><metadata
     id="metadata1963"><rdf:RDF><cc:Work
         rdf:about=""><dc:format>image/svg+xml</dc:format><dc:type
           rdf:resource="http://purl.org/dc/dcmitype/StillImage" /><dc:title></dc:title></cc:Work></rdf:RDF></metadata><defs
     id="defs1961" /><sodipodi:namedview
     pagecolor="#ffffff"
     bordercolor="#666666"
     borderopacity="1"
     objecttolerance="10"
     gridtolerance="10"
     guidetolerance="10"
     inkscape:pageopacity="0"
     inkscape:pageshadow="2"
     inkscape:window-width="1823"
     inkscape:window-height="1016"
     id="namedview1959"
     showgrid="false"
     inkscape:zoom="0.70129873"
     inkscape:cx="256.66666"
     inkscape:cy="162.66667"
     inkscape:window-x="97"
     inkscape:window-y="27"
     inkscape:window-maximized="1"
     inkscape:current-layer="g1965" /><g
     id="g1965"
     inkscape:groupmode="layer"
     inkscape:label="ink_ext_XXXXXX"
     transform="matrix(1.3333333,0,0,-1.3333333,0,325.33333)"><g
       id="g1967"
       transform="scale(0.1)"><path
         d="m 962.148,1015.39 c 530.192,0 960.002,-504.769 960.002,-504.769 0,0 -429.81,-504.76162 -960.002,-504.76162 C 431.949,5.85938 2.14844,510.621 2.14844,510.621 c 0,0 429.80056,504.769 959.99956,504.769 z"
         style="fill:#f73e67;fill-opacity:1;fill-rule:nonzero;stroke:none"
         id="path1969"
         inkscape:connector-curvature="0" /><path
         d="m 1600.23,1546.37 c 374.93,-374.92 321.92,-1035.749 321.92,-1035.749 0,0 -660.86,-53 -1035.74,321.918 C 511.48,1207.42 564.488,1868.24 564.488,1868.24 c 0,0 660.862,53.01 1035.742,-321.87 z"
         style="fill:#f79c9b;fill-opacity:1;fill-rule:nonzero;stroke:none"
         id="path1971"
         inkscape:connector-curvature="0" /><path
         d="m 2882.15,1015.39 c -530.2,0 -960,-504.769 -960,-504.769 0,0 429.8,-504.76162 960,-504.76162 530.19,0 960,504.76162 960,504.76162 0,0 -429.81,504.769 -960,504.769 z"
         style="fill:#86b09b;fill-opacity:1;fill-rule:nonzero;stroke:none"
         id="path1973"
         inkscape:connector-curvature="0" /><path
         d="M 2244.02,1546.37 C 1869.14,1171.45 1922.15,510.621 1922.15,510.621 c 0,0 660.82,-53 1035.74,321.918 374.88,374.881 321.91,1035.741 321.91,1035.741 0,0 -660.85,52.97 -1035.78,-321.91 z"
         style="fill:#c7c9aa;fill-opacity:1;fill-rule:nonzero;stroke:none"
         id="path1975"
         inkscape:connector-curvature="0" /><path
         d="m 2426.91,1470.62 c 0,-530.19 -504.76,-959.999 -504.76,-959.999 0,0 -504.77,429.809 -504.77,959.999 0,530.2 504.77,960 504.77,960 0,0 504.76,-429.8 504.76,-960 z"
         style="fill:#f6ceae;fill-opacity:1;fill-rule:nonzero;stroke:none"
         id="path1977"
         inkscape:connector-curvature="0" /></g></g></svg>