<?xml version="1.0" encoding="UTF-8" standalone="no"?>
<svg
   xmlns:dc="http://purl.org/dc/elements/1.1/"
   xmlns:cc="http://creativecommons.org/ns#"
   xmlns:rdf="http://www.w3.org/1999/02/22-rdf-syntax-ns#"
   xmlns:svg="http://www.w3.org/2000/svg"
   xmlns="http://www.w3.org/2000/svg"
   viewBox="0 0 34.666668 36"
   height="36"
   width="34.666668"
   xml:space="preserve"
   id="svg5241"
   version="1.1"><metadata
     id="metadata5247"><rdf:RDF><cc:Work
         rdf:about=""><dc:format>image/svg+xml</dc:format><dc:type
           rdf:resource="http://purl.org/dc/dcmitype/StillImage" /><dc:title></dc:title></cc:Work></rdf:RDF></metadata><defs
     id="defs5245" /><g
     transform="matrix(1.3333333,0,0,-1.3333333,0,36)"
     id="g5249"><g
       transform="scale(0.1)"
       id="g5251"><path
         id="path5253"
         style="fill:#525252;fill-opacity:1;fill-rule:nonzero;stroke:none"
         d="M 8.28125,37.5781 2.80859,26.9492 C 0.46875,22.3398 1.37109,16.7617 5,13.1211 8.67188,9.44922 14.2617,8.58984 18.8281,10.9414 l 10.6602,5.4297 z" /><path
         id="path5255"
         style="fill:#efefef;fill-opacity:1;fill-rule:nonzero;stroke:none"
         d="m 184.488,241.602 48.953,-48.942 -13.05,-13.051 -48.942,48.911 z" /><path
         id="path5257"
         style="fill:#e7e7e7;fill-opacity:1;fill-rule:nonzero;stroke:none"
         d="m 224.488,201.641 8.953,-8.981 -13.05,-13.051 -8.981,8.981 z" /><path
         id="path5259"
         style="fill:#c7c7c7;fill-opacity:1;fill-rule:nonzero;stroke:none"
         d="m 69.9219,29.9609 c -0.4336,-0.2695 -0.8633,-0.5117 -1.293,-0.7421 -0.9297,-0.4688 -1.9101,-0.8594 -2.8906,-1.168 -0.0391,0 -0.0391,-0.0391 -0.0781,-0.0391 L 29.4883,16.3711 8.28125,37.5781 19.9219,73.7891 v 0.039 c 0.3086,1.0117 0.7383,1.9922 1.207,2.9336 0.1992,0.4297 0.4727,0.8594 0.7109,1.25 z" /><path
         id="path5261"
         style="fill:#aaaaaa;fill-opacity:1;fill-rule:nonzero;stroke:none"
         d="m 233.48,192.621 -48.949,48.938 15.508,15.511 c 6.723,6.758 17.691,6.758 24.449,0 l 24.461,-24.492 c 6.75,-6.719 6.75,-17.699 0,-24.457 z" /><path
         id="path5263"
         style="fill:#9a9a9a;fill-opacity:1;fill-rule:nonzero;stroke:none"
         d="M 248.949,232.578 240,241.559 c 6.719,-6.758 6.719,-17.688 0,-24.45 l -15.512,-15.507 8.992,-8.981 15.469,15.5 c 6.75,6.758 6.75,17.738 0,24.457 z" /><path
         id="path5265"
         style="fill:#bebebe;fill-opacity:1;fill-rule:nonzero;stroke:none"
         d="M 187.77,212.23 37.7305,62.1484 35.3516,59.8008 c -0.9727,1.0195 -2.461,1.5273 -4.0235,1.289 l -6.7968,-1.1289 c -3.1211,-0.5507 -5.8204,2.1875 -5.3125,5.2696 l 1.9101,11.5312 c 0.1992,0.4297 0.4727,0.8594 0.7109,1.25 0.8594,1.4375 1.8711,2.7266 3.0391,3.9375 L 171.48,228.52 Z" /><path
         id="path5267"
         style="fill:#a7a7a7;fill-opacity:1;fill-rule:nonzero;stroke:none"
         d="M 220.391,179.57 73.8281,33.0117 c -1.1679,-1.1719 -2.5,-2.2304 -3.9062,-3.0508 -0.4336,-0.2695 -0.8633,-0.5117 -1.293,-0.7421 l -11.4805,-1.918 c -3.1289,-0.5 -5.8203,2.1875 -5.3086,5.3203 l 1.129,6.8281 c 0.2695,1.5703 -0.2696,3.0117 -1.2891,4.0313 L 204.102,195.898 Z" /><path
         id="path5269"
         style="fill:#b1b1b1;fill-opacity:1;fill-rule:nonzero;stroke:none"
         d="M 187.77,212.23 35.3906,59.8008 c 0.9805,-1.0117 1.5196,-2.461 1.25,-4.0195 L 35.5117,48.9492 C 35,45.8203 37.7305,43.1211 40.8203,43.6289 l 6.8399,1.1406 c 1.5586,0.2696 3,-0.2812 4.0195,-1.289 L 204.102,195.898 Z" /></g></g></svg>