<?xml version="1.0" encoding="UTF-8" standalone="no"?>
<svg
   xmlns:dc="http://purl.org/dc/elements/1.1/"
   xmlns:cc="http://creativecommons.org/ns#"
   xmlns:rdf="http://www.w3.org/1999/02/22-rdf-syntax-ns#"
   xmlns:svg="http://www.w3.org/2000/svg"
   xmlns="http://www.w3.org/2000/svg"
   id="svg4"
   version="1.1"
   width="1024"
   height="1024">
  <metadata
     id="metadata10">
    <rdf:RDF>
      <cc:Work
         rdf:about="">
        <dc:format>image/svg+xml</dc:format>
        <dc:type
           rdf:resource="http://purl.org/dc/dcmitype/StillImage" />
        <dc:title></dc:title>
      </cc:Work>
    </rdf:RDF>
  </metadata>
  <defs
     id="defs8" />
  <path
     style="fill:#ffffff"
     id="path2"
     d="M950.154 192H73.846C33.127 192 0 225.12699999999995 0 265.846v492.308C0 798.875 33.127 832 73.846 832h876.308c40.721 0 73.846-33.125 73.846-73.846V265.846C1024 225.12699999999995 990.875 192 950.154 192zM576 703.875L448 704V512l-96 123.077L256 512v192H128V320h128l96 128 96-128 128-0.125V703.875zM767.091 735.875L608 512h96V320h128v192h96L767.091 735.875z" />
</svg>
